<?xml version="1.0" encoding="UTF-8" standalone="no"?>
<!-- Created with Inkscape (http://www.inkscape.org/) -->

<svg
   xmlns:dc="http://purl.org/dc/elements/1.1/"
   xmlns:cc="http://creativecommons.org/ns#"
   xmlns:rdf="http://www.w3.org/1999/02/22-rdf-syntax-ns#"
   xmlns:svg="http://www.w3.org/2000/svg"
   xmlns="http://www.w3.org/2000/svg"
   xmlns:sodipodi="http://sodipodi.sourceforge.net/DTD/sodipodi-0.dtd"
   xmlns:inkscape="http://www.inkscape.org/namespaces/inkscape"
   width="744.09448819"
   height="1052.3622047"
   id="svg2"
   version="1.1"
   inkscape:version="0.48.2 r9819"
   sodipodi:docname="New document 1">
  <defs
     id="defs4">
    <inkscape:path-effect
       effect="skeletal"
       id="path-effect5219"
       is_visible="true"
       pattern="M 0,5 C 0,2.24 2.24,0 5,0 7.76,0 10,2.24 10,5 10,7.76 7.76,10 5,10 2.24,10 0,7.76 0,5 z"
       copytype="single_stretched"
       prop_scale="1"
       scale_y_rel="false"
       spacing="0"
       normal_offset="0"
       tang_offset="0"
       prop_units="false"
       vertical_pattern="false"
       fuse_tolerance="0" />
    <inkscape:path-effect
       effect="skeletal"
       id="path-effect4025"
       is_visible="true"
       pattern="M 0,5 C 0,2.24 2.24,0 5,0 7.76,0 10,2.24 10,5 10,7.76 7.76,10 5,10 2.24,10 0,7.76 0,5 z"
       copytype="single_stretched"
       prop_scale="1"
       scale_y_rel="false"
       spacing="0"
       normal_offset="0"
       tang_offset="0"
       prop_units="false"
       vertical_pattern="false"
       fuse_tolerance="0" />
    <inkscape:path-effect
       effect="skeletal"
       id="path-effect3960"
       is_visible="true"
       pattern="m 181.03017,193.98754 c 0,-2.76 2.24,-5 5,-5 2.76,0 5,2.24 5,5 0,2.76 -2.24,5 -5,5 -2.76,0 -5,-2.24 -5,-5 z"
       copytype="single_stretched"
       prop_scale="1"
       scale_y_rel="false"
       spacing="0"
       normal_offset="0"
       tang_offset="0"
       prop_units="false"
       vertical_pattern="false"
       fuse_tolerance="0" />
    <inkscape:path-effect
       effect="skeletal"
       id="path-effect3915"
       is_visible="true"
       pattern="m 9.9467125,-136.24332 c 0,-2.76 2.2400005,-5 5.0000005,-5 2.76,0 5,2.24 5,5 0,2.76 -2.24,5 -5,5 -2.76,0 -5.0000005,-2.24 -5.0000005,-5 z"
       copytype="single_stretched"
       prop_scale="1"
       scale_y_rel="false"
       spacing="0"
       normal_offset="0"
       tang_offset="0"
       prop_units="false"
       vertical_pattern="false"
       fuse_tolerance="0" />
    <inkscape:path-effect
       effect="skeletal"
       id="path-effect3907"
       is_visible="true"
       pattern="m 9.9467125,-136.24332 c 0,-2.76 2.2400005,-5 5.0000005,-5 2.76,0 5,2.24 5,5 0,2.76 -2.24,5 -5,5 -2.76,0 -5.0000005,-2.24 -5.0000005,-5 z"
       copytype="single_stretched"
       prop_scale="1"
       scale_y_rel="false"
       spacing="0"
       normal_offset="0"
       tang_offset="0"
       prop_units="false"
       vertical_pattern="false"
       fuse_tolerance="0" />
    <inkscape:path-effect
       effect="skeletal"
       id="path-effect3883"
       is_visible="true"
       pattern="m 9.9467125,-136.24332 c 0,-2.76 2.2400005,-5 5.0000005,-5 2.76,0 5,2.24 5,5 0,2.76 -2.24,5 -5,5 -2.76,0 -5.0000005,-2.24 -5.0000005,-5 z"
       copytype="single_stretched"
       prop_scale="1"
       scale_y_rel="false"
       spacing="0"
       normal_offset="0"
       tang_offset="0"
       prop_units="false"
       vertical_pattern="false"
       fuse_tolerance="0" />
    <inkscape:path-effect
       effect="skeletal"
       id="path-effect3960-1"
       is_visible="true"
       pattern="m 330.38305,225.09535 c 0,-2.76 2.24,-5 4.99999,-5 2.76,0 5,2.24 5,5 0,2.76 -2.24,5 -5,5 -2.75999,0 -4.99999,-2.24 -4.99999,-5 z"
       copytype="single_stretched"
       prop_scale="1"
       scale_y_rel="false"
       spacing="0"
       normal_offset="0"
       tang_offset="0"
       prop_units="false"
       vertical_pattern="false"
       fuse_tolerance="0" />
    <filter
       id="filter4351"
       height="1.3"
       width="1.3"
       y="-0.15"
       x="-0.15"
       inkscape:menu-tooltip="Van Gogh painting effect for bitmaps"
       inkscape:menu="Distort"
       inkscape:label="Pixel smear"
       color-interpolation-filters="sRGB">
      <feTurbulence
         id="feTurbulence4353"
         type="fractalNoise"
         numOctaves="3"
         baseFrequency="0.25 0.4"
         seed="5" />
      <feColorMatrix
         id="feColorMatrix4355"
         result="result5"
         values="1 0 0 0 0 0 1 0 0 0 0 0 1 0 0 0 0 0 1 0 " />
      <feComposite
         id="feComposite4357"
         in2="result5"
         in="SourceGraphic"
         operator="in" />
      <feMorphology
         id="feMorphology4359"
         operator="dilate"
         radius="1.5"
         result="result3" />
      <feTurbulence
         id="feTurbulence4361"
         numOctaves="5"
         baseFrequency="0.03"
         type="fractalNoise"
         seed="7" />
      <feGaussianBlur
         id="feGaussianBlur4363"
         stdDeviation="0.5"
         result="result91" />
      <feDisplacementMap
         id="feDisplacementMap4365"
         in2="result91"
         in="result3"
         xChannelSelector="R"
         yChannelSelector="G"
         scale="27"
         result="result4" />
      <feComposite
         id="feComposite4367"
         in2="result4"
         in="result4"
         k3="0.8"
         k1="1.3"
         result="result2"
         operator="arithmetic" />
      <feBlend
         id="feBlend4369"
         in2="result2"
         mode="screen"
         in="result2" />
    </filter>
    <filter
       id="filter5279"
       inkscape:label="Matte jelly"
       x="0"
       y="0"
       width="1"
       height="1"
       inkscape:menu="ABCs"
       inkscape:menu-tooltip="Bulging, matte jelly covering"
       color-interpolation-filters="sRGB">
      <feColorMatrix
         id="feColorMatrix5281"
         values="1 0 0 0 0 0 1 0 0 0 0 0 1 0 0 0 0 0 0.85 0"
         result="result0"
         in="SourceGraphic" />
      <feGaussianBlur
         id="feGaussianBlur5283"
         in="SourceAlpha"
         stdDeviation="7" />
      <feSpecularLighting
         id="feSpecularLighting5285"
         surfaceScale="5"
         specularConstant="0.9"
         specularExponent="25"
         result="result1">
        <feDistantLight
           id="feDistantLight5287"
           elevation="60"
           azimuth="225" />
      </feSpecularLighting>
      <feComposite
         id="feComposite5289"
         in2="result0"
         operator="atop" />
    </filter>
    <filter
       id="filter5279-4"
       inkscape:label="Hole"
       x="0"
       y="0"
       width="1"
       height="1"
       inkscape:menu="Morphology"
       inkscape:menu-tooltip="Opens a smooth hole inside the shape"
       color-interpolation-filters="sRGB">
      <feColorMatrix
         id="feColorMatrix5281-0"
         values="1 0 0 0 0 0 1 0 0 0 0 0 1 0 0 0 0 0 0.85 0"
         result="result0"
         in="SourceGraphic" />
      <feGaussianBlur
         id="feGaussianBlur5283-9"
         in="SourceAlpha"
         stdDeviation="7" />
      <feSpecularLighting
         id="feSpecularLighting5285-4"
         surfaceScale="5"
         specularConstant="0.89999998"
         specularExponent="25"
         result="result1">
        <feDistantLight
           id="feDistantLight5287-8"
           elevation="60"
           azimuth="225" />
      </feSpecularLighting>
      <feComposite
         id="feComposite5289-8"
         in2="result0"
         operator="atop"
         result="fbSourceGraphic" />
      <feColorMatrix
         result="fbSourceGraphicAlpha"
         in="fbSourceGraphic"
         values="0 0 0 -1 0 0 0 0 -1 0 0 0 0 -1 0 0 0 0 1 0"
         id="feColorMatrix5336" />
      <feGaussianBlur
         id="feGaussianBlur5338"
         stdDeviation="12"
         in="fbSourceGraphicAlpha"
         result="result1" />
      <feComposite
         id="feComposite5340"
         in2="result1"
         operator="arithmetic"
         k2="3.5"
         k4="-2"
         result="result2" />
      <feComposite
         id="feComposite5342"
         in2="result2"
         in="fbSourceGraphic"
         operator="out"
         result="result91" />
      <feBlend
         id="feBlend5344"
         in2="result91"
         mode="darken" />
    </filter>
  </defs>
  <sodipodi:namedview
     id="base"
     pagecolor="#ffffff"
     bordercolor="#666666"
     borderopacity="1.0"
     inkscape:pageopacity="0.0"
     inkscape:pageshadow="2"
     inkscape:zoom="0.50267865"
     inkscape:cx="372.04724"
     inkscape:cy="526.18109"
     inkscape:document-units="px"
     inkscape:current-layer="layer4"
     showgrid="false"
     inkscape:window-width="1280"
     inkscape:window-height="748"
     inkscape:window-x="-8"
     inkscape:window-y="-8"
     inkscape:window-maximized="1" />
  <metadata
     id="metadata7">
    <rdf:RDF>
      <cc:Work
         rdf:about="">
        <dc:format>image/svg+xml</dc:format>
        <dc:type
           rdf:resource="http://purl.org/dc/dcmitype/StillImage" />
        <dc:title></dc:title>
      </cc:Work>
    </rdf:RDF>
  </metadata>
  <g
     inkscape:groupmode="layer"
     id="layer3"
     inkscape:label="Layer#1" />
  <g
     inkscape:groupmode="layer"
     id="layer2"
     inkscape:label="Layer">
    <path
       style="fill:#e580ff;stroke:none;filter:url(#filter4351)"
       d="m 411.89158,893.48885 c -4.68274,-6.93765 -12.25435,-20.12468 -16.8258,-29.30436 -8.23088,-16.52805 -8.32057,-16.95057 -9.2223,-43.44397 -0.9982,-29.32656 4.70021,-92.028 11.89987,-130.93832 3.20275,-17.3091 3.87687,-28.60761 3.43189,-57.51993 l -0.55374,-35.97973 -5.06367,0 c -4.85511,0 -5.1239,0.66216 -6.52562,16.07678 -0.80407,8.84226 -2.33454,33.00278 -3.40107,53.69007 -2.26312,43.89797 -4.13338,51.74436 -20.52704,86.11799 -12.92441,27.0995 -23.19369,44.69534 -52.72463,90.34084 -10.77223,16.65051 -21.54766,34.13357 -23.94535,38.85122 -2.3977,4.71766 -5.25239,8.57752 -6.34375,8.57752 -1.13741,0 -1.98431,-7.21125 -1.98431,-16.89634 0,-24.0443 6.83346,-48.36283 25.30969,-90.07057 21.04156,-47.49871 22.79271,-52.1413 28.45275,-75.4333 6.23786,-25.66972 8.14608,-55.30419 5.1495,-79.97144 -1.28105,-10.54533 -2.77105,-20.61841 -3.3111,-22.38462 -0.54005,-1.76623 1.76796,-6.65921 5.12887,-10.87331 9.40929,-11.7978 7.08095,-13.37752 -3.24054,-2.19863 -28.76276,31.15207 -43.82978,63.48211 -72.70506,156.00684 -16.20464,51.92435 -18.56075,56.27034 -40.31696,74.36696 -6.77621,5.63639 -22.34645,17.20791 -34.60054,25.71449 -24.26621,16.8452 -33.05572,24.37213 -42.86654,36.70918 -3.52444,4.43198 -7.07692,7.3943 -7.89439,6.58298 -4.00467,-3.97451 19.45396,-74.54522 39.28646,-118.1856 15.57095,-34.26303 28.91533,-53.74994 63.1071,-92.15592 34.64957,-38.92018 46.84524,-54.72914 54.70697,-70.91544 6.72979,-13.85574 12.07573,-34.22107 12.12043,-46.17266 l 0.0299,-8.00402 -10.6337,10.21794 c -14.33899,13.77836 -18.33494,16.21629 -50.99256,31.11059 -15.51331,7.07522 -32.59513,16.32107 -37.95962,20.5463 -10.46508,8.24267 -24.08698,27.58959 -66.4665,94.40114 -13.73015,21.64566 -29.40901,45.94026 -34.84192,53.98801 -9.80428,14.52309 -15.361236,18.93052 -12.723203,10.09122 2.73095,-9.15065 54.257093,-116.31755 68.168983,-141.78161 28.16587,-51.55425 59.73193,-91.80761 79.84188,-101.81516 11.67812,-5.81153 27.82163,-7.57621 38.17153,-4.17262 8.62896,2.83765 12.13385,1.27279 4.70419,-2.10033 -3.51094,-1.59397 -5.02732,-3.89735 -5.03225,-7.64397 -0.004,-2.94938 -2.56504,-11.26588 -5.69148,-18.4811 -11.45749,-26.44172 -8.29477,-58.47405 9.21545,-93.3348 4.60234,-9.16269 21.44102,-36.33186 37.4193,-60.37592 42.4373,-63.85954 49.24011,-77.37097 53.84504,-106.94453 l 2.23729,-14.36833 -5.76752,-4.58246 c -5.3843,-4.27797 -5.81237,-5.7016 -6.44224,-21.42488 -0.59783,-14.92234 -0.13612,-17.6477 4.05019,-23.90625 6.65895,-9.95529 25.36928,-18.50685 54.59916,-24.95458 28.05716,-6.18904 32.61591,-8.20804 49.89584,-22.09807 11.00913,-8.84943 40.32055,-40.17718 48.56506,-51.905884 1.53559,-2.184542 3.57846,-3.971896 4.53971,-3.971896 0.96127,0 1.59317,10.671463 1.40426,23.71435 -0.34134,23.56617 -0.29667,23.80899 7.14567,38.85121 4.11906,8.32525 13.90939,26.46065 21.75632,40.30088 41.41581,73.04821 40.35138,103.94239 -3.58286,103.98971 -14.29878,0.0161 -15.95462,1.22752 -22.74857,16.65266 -8.52415,19.35351 -9.94775,68.76592 -3.76533,130.69291 3.38205,33.8767 3.43643,85.15694 0.1007,94.85744 -6.3666,18.51383 -22.44686,27.94527 -59.5075,34.90243 l -7.59608,1.42595 47.84161,35.31927 c 67.84701,50.0883 76.3682,56.9805 88.34372,71.45506 31.2969,37.82787 48.60406,83.4058 54.04942,142.33758 3.18029,34.41827 0.91142,33.47736 -14.15208,-5.86889 -27.77229,-72.54208 -48.90221,-108.76446 -91.58303,-156.99808 -16.70704,-18.88062 -33.32691,-33.35087 -45.40778,-39.53467 -11.18064,-5.72301 -26.93806,-3.31101 -26.93806,4.12342 0,1.79463 8.00324,11.52594 17.78496,21.62512 9.78172,10.09918 19.26665,21.54088 21.0776,25.42598 4.72882,10.14497 25.04421,95.20423 30.12706,126.14023 5.5913,34.03074 6.04916,71.62587 1.09266,89.72236 -3.90914,14.27247 -8.4887,24.30839 -11.09238,24.30839 -0.91858,0 -2.25427,-7.9468 -2.96821,-17.65959 -1.64626,-22.39677 -14.32722,-101.04197 -18.5491,-115.03845 -5.83235,-19.33545 -62.44819,-153.41683 -69.02906,-163.47919 -3.80644,-5.82014 -12.24026,-6.08133 -14.03883,-0.43475 -0.82115,2.57801 0.36898,6.89718 3.19768,11.60491 4.21482,7.01463 4.48393,9.64793 4.16921,40.79962 -0.35986,35.62051 -1.91316,59.43971 -8.55491,131.18582 -4.55452,49.19896 -5.90168,98.2639 -3.11708,113.52615 1.11279,6.09924 1.02721,9.58668 -0.23526,9.58668 -1.0914,0 -5.81569,-5.67628 -10.49843,-12.61403 z"
       id="path3917"
       inkscape:connector-curvature="0" />
    <path
       style="fill:#000000;fill-rule:evenodd;stroke:none"
       d="m 290.44401,415.77259 c 0.47582,0.0462 0.70912,2.19825 0.83536,6.14612 0.0631,1.97394 0.10271,4.39587 0.19873,7.2137 0.096,2.81782 0.24584,6.03172 0.61901,9.57511 0.29065,2.64134 0.68728,5.47217 1.37185,8.34633 0.68456,2.87416 1.65569,5.79251 3.20651,8.52068 1.17222,2.10182 2.67837,4.10744 4.53527,5.79249 1.83911,1.6898 4.09385,3.11006 6.6088,4.22425 3.10622,1.40787 6.58595,2.30871 10.35813,2.82524 3.77218,0.51653 7.83703,0.64867 12.05319,0.61619 3.39341,-0.13098 6.7351,-0.66278 9.19179,-2.27738 1.92932,-1.14982 3.54805,-3.08028 4.54602,-5.29686 1.12888,-2.41668 1.54665,-5.38487 1.61783,-8.54431 0.0471,-3.53456 -0.51541,-7.22027 -1.43806,-10.96036 -1.96197,-7.83961 -5.50598,-15.56084 -10.45326,-22.4848 -0.19079,-0.26498 -0.38326,-0.52838 -0.57748,-0.79004 -2.10604,-2.83718 -4.38358,-5.41977 -6.89618,-7.5698 -2.43959,-2.04825 -4.93747,-3.7408 -7.50292,-4.5653 -4.13539,-1.34024 -8.15078,-2.23088 -11.78612,-1.85901 -2.78475,0.26682 -5.45601,1.20418 -7.30975,2.82078 -2.14217,1.68357 -3.64374,4.41945 -4.74013,7.35029 -1.90913,3.27913 -2.77906,7.03586 -3.27742,10.84652 -0.36546,-0.28915 -0.67441,-0.56964 -0.95247,-0.83837 -0.55426,-0.53565 -0.96908,-1.01618 -1.24899,-1.43314 -1e-5,-1e-5 -2e-5,-2e-5 -3e-5,-4e-5 -10e-6,0 -10e-6,0 -2e-5,0 -0.2488,-0.0271 -0.29802,-0.0402 -0.15344,-0.0194 0,0 0,0 0,0 0.35564,0.027 0.81047,0.0211 1.3592,0.0191 1.65002,-0.0127 3.33264,-0.069 5.04245,-0.10936 1.82534,-0.0438 3.68502,-0.0842 5.56953,-0.0535 1e-5,0 1e-5,0 2e-5,0 0.70381,0.009 1.48127,0.033 2.32444,0.10603 0.18604,-0.10688 1.10987,0.0476 2.66647,0.64899 1e-5,0 1e-5,0 2e-5,10e-6 0.89895,0.47562 1.6334,0.95008 2.24549,1.36172 1.07217,0.70667 2.09772,1.42841 3.08563,2.15211 2.62148,1.91659 5.09998,3.9283 7.37665,6.04584 2.21744,2.00799 4.45813,4.36178 6.13052,7.22596 0.67391,1.05007 1.23651,2.51454 1.41612,4.31394 0.0953,1.80924 -0.56997,3.50282 -1.85131,4.82168 -1.83041,1.77314 -4.11285,3.14669 -6.63829,3.84516 -2.35666,0.59447 -4.66087,0.48537 -6.70149,-0.0799 -2.47147,-0.72843 -4.5043,-1.8738 -6.2172,-3.13625 -1.7129,-1.26245 -3.10588,-2.64352 -4.27455,-3.96159 -1.64815,-1.80883 -2.96285,-3.5618 -4.03826,-5.16548 -1.07541,-1.60368 -1.91094,-3.05923 -2.56437,-4.31533 0,0 0,0 0,0 -0.77717,-1.49082 -1.2981,-2.71757 -1.59508,-3.62262 -0.15883,-0.48442 -0.2561,-0.88325 -0.29058,-1.18163 -0.0178,-0.15521 -0.0205,-0.28763 -0.006,-0.38987 0,0 0,0 0,0 0.0131,-0.0556 0.024,-0.12454 0.048,-0.17004 0.024,-0.0455 0.058,-0.0698 0.0953,-0.0792 0.0373,-0.009 0.0768,-0.007 0.11983,-0.001 0.043,0.005 0.0909,0.01 0.15078,0.052 0,0 0,0 0,0 0.0858,0.0457 0.18519,0.11446 0.30146,0.21192 0.2222,0.18551 0.49852,0.45959 0.83605,0.82493 0.62862,0.67958 1.45717,1.65531 2.51827,2.88247 0,0 0,0 0,0 0.89528,1.03372 1.94777,2.24465 3.19072,3.56447 1.24296,1.31982 2.67584,2.74968 4.35664,4.17352 1.23687,1.01789 2.57881,2.06152 4.02361,2.93851 1.44481,0.877 2.99229,1.58886 4.64254,1.82378 1.23802,0.20103 2.54824,0.1533 3.67174,-0.27314 1.27004,-0.41495 2.5108,-1.39132 3.68653,-2.62433 -0.14217,0.17969 -0.21368,0.208 -0.24172,0.36968 0.0337,-0.14969 -0.26965,-0.54232 -0.63249,-1.21539 -1.11536,-1.76923 -2.97258,-3.37794 -5.10237,-5.20796 -2.12715,-1.77042 -4.46527,-3.46865 -6.97234,-5.12717 -0.9432,-0.62247 -1.89405,-1.2278 -2.85808,-1.80108 -0.63654,-0.37325 -1.16106,-0.69133 -1.59804,-0.88368 0,0 0,0 0,0 0.87365,0.25996 0.99422,0.41185 0.4139,0.24885 -0.48712,-0.0243 -1.0521,-0.0119 -1.69657,0.001 -10e-6,0 -10e-6,0 -10e-6,0 -1.66709,0.0402 -3.40685,0.14952 -5.22738,0.26054 -1.65605,0.10262 -3.37896,0.22238 -5.17657,0.30018 -0.5467,0.0268 -1.19232,0.0503 -1.93948,0.0336 0,0 0,0 0,0 -0.16213,0.009 -0.51964,-0.0175 -1.07108,-0.0993 -1e-5,0 -3e-5,-10e-6 -4e-5,-10e-6 -10e-6,-1e-5 -2e-5,-3e-5 -4e-5,-4e-5 -0.36212,-0.43182 -0.86002,-0.92881 -1.49002,-1.49982 -0.31606,-0.28646 -0.66957,-0.59366 -1.03503,-0.92476 -0.49836,-5.61048 -0.48686,-11.66615 0.77992,-17.82094 1.28151,-4.13261 3.60731,-8.28914 7.32701,-11.63215 3.59439,-3.05518 8.03923,-4.84239 12.6099,-5.26744 5.5424,-0.49139 10.94135,0.48887 15.82871,2.15621 4.16842,1.42013 7.80283,3.72101 10.86206,6.38497 3.19885,2.7444 5.99924,5.87136 8.4494,9.19413 0.22596,0.30643 0.4486,0.61405 0.66801,0.92267 5.69726,7.96125 9.71146,16.87172 11.88166,25.96844 1.05586,4.3692 1.64958,8.90739 1.54303,13.47669 -0.0665,4.10498 -0.86466,8.36024 -2.70048,12.33998 -1.82593,3.87606 -4.7792,7.11662 -8.45306,9.26489 -4.58932,2.53275 -9.45553,3.32302 -13.86946,3.19204 -4.52397,-0.0325 -9.06698,-0.37214 -13.42136,-1.19854 -4.35438,-0.82641 -8.52003,-2.13927 -12.34927,-4.02005 -3.16554,-1.57937 -6.01379,-3.63457 -8.3823,-6.05753 -2.3721,-2.44861 -4.16966,-5.18642 -5.47072,-7.97425 -1.64291,-3.58583 -2.55033,-7.11462 -3.07415,-10.43155 -0.52381,-3.31692 -0.6629,-6.42318 -0.64847,-9.24117 0.003,-3.77486 0.24976,-7.11067 0.56563,-9.99417 0.31588,-2.88351 0.7034,-5.31497 1.07879,-7.2766 0.7508,-3.92327 1.43918,-5.97405 1.915,-5.92789 z"
       id="path3958"
       inkscape:path-effect="#path-effect3960"
       inkscape:original-d="m 290.44401,415.77259 c -3.23136,33.30985 -1.5047,57.69093 39.78685,57.69093 38.07037,0 15.10859,-63.26456 -9.94671,-71.61633 -20.94,-6.98 -31.82948,3.79019 -31.82948,25.86145 0,0.51581 14.3737,-0.77052 15.91474,0 3.29809,1.64905 22.91554,14.88196 17.90408,19.89343 -13.54149,13.54148 -29.65306,-15.16642 -29.84014,-15.91474"
       inkscape:connector-curvature="0" />
    <path
       style="fill:#000000;fill-rule:evenodd;stroke:none"
       d="m 499.17278,446.88039 c 0.47582,-0.0462 1.1642,2.00462 1.915,5.92789 0.37539,1.96164 0.76291,4.39309 1.07879,7.2766 0.31587,2.88351 0.56272,6.21931 0.56563,9.99417 0.0144,2.81799 -0.12466,5.92425 -0.64847,9.24118 -0.52382,3.31692 -1.43124,6.84571 -3.07415,10.43154 -1.30106,2.78783 -3.09862,5.52564 -5.47072,7.97425 -2.36851,2.42296 -5.21676,4.47816 -8.3823,6.05753 -3.82924,1.88078 -7.99489,3.19364 -12.34927,4.02005 -4.35438,0.8264 -8.89739,1.16606 -13.42136,1.19854 -4.41393,0.13098 -9.28014,-0.65929 -13.86946,-3.19204 -3.67386,-2.14827 -6.62713,-5.38883 -8.45306,-9.26489 -1.83582,-3.97974 -2.63394,-8.235 -2.70048,-12.33998 -0.10655,-4.5693 0.48717,-9.10749 1.54303,-13.47669 2.1702,-9.09672 6.1844,-18.00719 11.88166,-25.96844 0.21937,-0.30858 0.44198,-0.61615 0.66791,-0.92254 2.45019,-3.32282 5.25061,-6.44982 8.4495,-9.19426 3.05923,-2.66396 6.69364,-4.96484 10.86206,-6.38497 4.88736,-1.66734 10.28631,-2.6476 15.82871,-2.15621 4.57067,0.42505 9.0155,2.21226 12.6099,5.26744 3.7197,3.34301 6.0455,7.49954 7.32701,11.63215 1.26678,6.15479 1.27828,12.21046 0.77991,17.82094 -0.36545,0.33109 -0.71896,0.63829 -1.03502,0.92476 -0.63,0.57101 -1.1279,1.068 -1.49002,1.49982 -2e-5,10e-6 -3e-5,3e-5 -4e-5,4e-5 -10e-6,0 -3e-5,0 -4e-5,10e-6 -0.55144,0.0818 -0.90895,0.10799 -1.07108,0.0993 0,0 0,0 0,0 -0.74716,0.0167 -1.39278,-0.007 -1.93948,-0.0336 -1.79761,-0.0778 -3.52052,-0.19756 -5.17657,-0.30018 -1.82053,-0.11102 -3.56029,-0.22038 -5.22738,-0.26054 0,0 0,0 -1e-5,0 -0.64447,-0.013 -1.20945,-0.0255 -1.69657,-0.001 -0.58032,0.16299 -0.45975,0.0111 0.4139,-0.24885 0,0 0,0 0,0 -0.43699,0.19235 -0.9615,0.51043 -1.59804,0.88367 -0.96403,0.57328 -1.91488,1.17862 -2.85808,1.80109 -2.50707,1.65852 -4.84519,3.35675 -6.97234,5.12717 -2.12979,1.83002 -3.98701,3.43873 -5.10237,5.20796 -0.36284,0.67307 -0.66616,1.0657 -0.63249,1.21539 -0.028,-0.16168 -0.0995,-0.18999 -0.24172,-0.36968 1.17573,1.23301 2.41649,2.20938 3.68653,2.62433 1.1235,0.42644 2.43372,0.47417 3.67174,0.27314 1.65025,-0.23492 3.19773,-0.94678 4.64254,-1.82378 1.4448,-0.87699 2.78674,-1.92062 4.02361,-2.93851 1.68081,-1.42384 3.11368,-2.8537 4.35664,-4.17352 1.24295,-1.31982 2.29544,-2.53075 3.19072,-3.56447 0,0 0,0 0,0 1.0611,-1.22716 1.88965,-2.20289 2.51827,-2.88247 0.33753,-0.36534 0.61385,-0.63942 0.83605,-0.82493 0.11627,-0.0975 0.21564,-0.16622 0.30146,-0.21192 0,0 0,0 0,0 0.0599,-0.042 0.10774,-0.0466 0.15078,-0.052 0.043,-0.005 0.0825,-0.008 0.11983,0.001 0.0373,0.009 0.0713,0.0337 0.0953,0.0792 0.024,0.0455 0.035,0.11444 0.048,0.17004 0,0 0,0 0,0 0.0149,0.10224 0.0121,0.23466 -0.006,0.38987 -0.0345,0.29838 -0.13175,0.69721 -0.29058,1.18163 -0.29698,0.90505 -0.81791,2.1318 -1.59508,3.62262 0,0 0,0 0,0 -0.65343,1.2561 -1.48896,2.71165 -2.56437,4.31533 -1.07541,1.60368 -2.39012,3.35665 -4.03826,5.16548 -1.16867,1.31807 -2.56165,2.69913 -4.27455,3.96159 -1.7129,1.26245 -3.74573,2.40782 -6.2172,3.13625 -2.04062,0.56526 -4.34483,0.67436 -6.70149,0.0799 -2.52544,-0.69847 -4.80788,-2.07202 -6.63829,-3.84516 -1.28134,-1.31886 -1.94663,-3.01244 -1.85131,-4.82168 0.17961,-1.7994 0.74221,-3.26387 1.41612,-4.31394 1.67239,-2.86417 3.91308,-5.21797 6.13053,-7.22596 2.27666,-2.11753 4.75516,-4.12924 7.37664,-6.04584 0.98791,-0.7237 2.01346,-1.44544 3.08563,-2.1521 0.61209,-0.41165 1.34654,-0.88611 2.2455,-1.36173 0,0 0,-10e-6 10e-6,-10e-6 1.5566,-0.60144 2.48043,-0.75587 2.66647,-0.64898 0.84317,-0.0731 1.62063,-0.0966 2.32444,-0.10604 1e-5,0 1e-5,0 2e-5,0 1.88451,-0.0307 3.74419,0.01 5.56953,0.0535 1.70981,0.0403 3.39243,0.0966 5.04245,0.10936 0.54873,0.002 1.00356,0.008 1.3592,-0.0191 0,0 0,0 0,0 0.14458,-0.0208 0.0954,-0.008 -0.15344,0.0194 -1e-5,0 -1e-5,0 -2e-5,0 -10e-6,2e-5 -2e-5,3e-5 -3e-5,5e-5 -0.27991,0.41695 -0.69473,0.89748 -1.24899,1.43313 -0.27806,0.26873 -0.58701,0.54922 -0.95246,0.83837 -0.49837,-3.81066 -1.3683,-7.56739 -3.27743,-10.84652 -1.09639,-2.93085 -2.59796,-5.66672 -4.74013,-7.35029 -1.85374,-1.61661 -4.525,-2.55396 -7.30975,-2.82078 -3.63534,-0.37187 -7.65073,0.51877 -11.78612,1.85901 -2.56545,0.8245 -5.06333,2.51705 -7.50292,4.5653 -2.51264,2.15005 -4.79021,4.73269 -6.89626,7.56992 -0.1942,0.26162 -0.38664,0.52498 -0.5774,0.78992 -4.94728,6.92395 -8.49129,14.64519 -10.45326,22.4848 -0.92265,3.74009 -1.48515,7.4258 -1.43806,10.96036 0.0712,3.15944 0.48895,6.12762 1.61783,8.54431 0.99797,2.21658 2.6167,4.14704 4.54602,5.29686 2.45669,1.6146 5.79838,2.1464 9.19179,2.27738 4.21616,0.0325 8.28101,-0.0997 12.05319,-0.61619 3.77218,-0.51653 7.25191,-1.41737 10.35813,-2.82524 2.51495,-1.11419 4.76969,-2.53445 6.6088,-4.22425 1.8569,-1.68505 3.36305,-3.69066 4.53527,-5.79249 1.55082,-2.72817 2.52195,-5.64651 3.20651,-8.52068 0.68457,-2.87416 1.0812,-5.70499 1.37185,-8.34632 0.37317,-3.5434 0.52299,-6.7573 0.61901,-9.57512 0.096,-2.81783 0.13561,-5.23976 0.19873,-7.2137 0.12624,-3.94787 0.35954,-6.09996 0.83536,-6.14612 z"
       id="path3958-7"
       inkscape:path-effect="#path-effect3960-1"
       inkscape:original-d="m 499.17278,446.88039 c 3.23136,33.30985 1.5047,57.69093 -39.78685,57.69093 -38.07037,0 -15.10859,-63.26456 9.94671,-71.61633 20.94,-6.98 31.82948,3.79019 31.82948,25.86145 0,0.51581 -14.3737,-0.77052 -15.91474,0 -3.29809,1.64905 -22.91554,14.88196 -17.90408,19.89343 13.54149,13.54148 29.65306,-15.16642 29.84014,-15.91474"
       inkscape:connector-curvature="0"
       inkscape:transform-center-x="49.733563" />
    <path
       style="fill:#ffffff;stroke:none"
       d="m 311.85078,465.2489 c -9.56058,-3.41159 -12.4033,-5.84016 -15.4523,-13.20109 -3.40034,-8.20917 -1.26924,-9.29453 6.09039,-3.10181 7.89214,6.6408 18.29957,7.07638 22.59373,0.94561 2.65303,-3.78774 2.65776,-4.92652 0.0414,-9.98594 -3.98888,-7.71365 -18.00748,-17.56826 -24.9916,-17.56826 -6.80605,0 -7.29384,-3.36651 -1.54647,-10.6731 9.8058,-12.46606 29.27672,-2.95831 39.89159,19.47929 6.9325,14.65384 7.59047,27.11975 1.74021,32.97001 -4.71542,4.71542 -16.96068,5.2055 -28.36698,1.13529 z"
       id="path3983"
       inkscape:connector-curvature="0" />
    <path
       style="fill:#ffffff;stroke:none"
       d="m 453.66644,497.73065 c -6.59205,-2.66213 -7.94707,-5.23515 -7.98306,-15.1589 -0.0656,-18.08081 16.3467,-42.47075 30.34639,-45.0971 8.93329,-1.6759 12.8705,-0.027 16.44627,6.88781 4.2886,8.29324 3.65716,9.80443 -4.09671,9.80443 -5.43631,0 -8.98702,1.82499 -15.83891,8.14084 -11.22155,10.34366 -12.95082,15.28651 -7.02641,20.08381 6.20718,5.02626 14.58472,4.49431 21.5523,-1.36852 7.30311,-6.14517 8.98057,-6.26065 7.22425,-0.49734 -1.76976,5.80742 -6.59269,11.21072 -12.82478,14.36808 -7.16636,3.63068 -22.06811,5.15139 -27.79934,2.83689 l 0,0 z"
       id="path3985"
       inkscape:connector-curvature="0" />
    <path
       style="fill:#000000;fill-rule:evenodd;stroke:none"
       d="m 375.98573,499.32497 c 0.4963,0.13639 0.87124,0.63855 1.16959,1.42854 0.29836,0.78999 0.51807,1.87314 0.73273,3.13116 0.21467,1.25802 0.41993,2.69195 0.77096,4.09354 0.35104,1.40158 0.84509,2.76682 1.77503,3.81983 0.43053,0.58124 1.05414,1.10873 1.7542,1.49644 0.70006,0.38771 1.47399,0.63608 2.16194,0.58849 0.003,3.6e-4 0.006,7.2e-4 0.01,0.001 0.91154,0.10117 1.91177,-0.16527 2.89418,-0.61 0.98241,-0.44473 1.94442,-1.06748 2.79405,-1.74344 1.16287,-0.91695 2.07413,-2.08252 2.84544,-3.26248 0.77131,-1.17997 1.40092,-2.37369 1.96397,-3.41374 1.12609,-2.08011 2.00979,-3.54008 3.01102,-3.54008 0.50062,0 0.99229,0.36568 1.42415,1.10283 0.43187,0.73716 0.8036,1.84899 0.96565,3.30493 0.16205,1.45595 0.11185,3.25964 -0.37771,5.29014 -0.48956,2.0305 -1.42322,4.2896 -3.05054,6.5237 -1.26145,1.70814 -2.98442,3.28024 -5.13117,4.43482 -2.14674,1.15458 -4.71782,1.88824 -7.55281,1.90929 -0.01,8e-5 -0.02,1.4e-4 -0.0301,2e-4 -2.77306,-0.12866 -5.27325,-1.0395 -7.28793,-2.43766 -2.01468,-1.39816 -3.54373,-3.2802 -4.51384,-5.34269 -1.13026,-2.83567 -1.41067,-5.43748 -1.28639,-7.64178 0.12428,-2.20431 0.64905,-4.0169 1.26386,-5.41615 0.61481,-1.39925 1.32059,-2.39133 1.9653,-3.00407 0.64471,-0.61273 1.23241,-0.84929 1.72871,-0.7129 z"
       id="path4023"
       inkscape:path-effect="#path-effect4025"
       inkscape:original-d="m 375.98573,499.32497 c -7.18404,26.14192 21.88277,25.34596 21.88277,1.98934"
       inkscape:connector-curvature="0" />
  </g>
  <g
     inkscape:groupmode="layer"
     id="layer4"
     inkscape:label="Layer#2">
    <path
       style="fill:#dd55ff;stroke:none;filter:url(#filter5279-4)"
       d="m 156.39728,459.71567 c -10.1746,-5.51984 -22.45078,-18.84837 -26.91217,-29.21915 -8.2049,-19.0728 -6.6637,-39.4015 3.08986,-40.75589 4.37374,-0.60734 17.99127,6.21658 17.61201,8.82561 -0.13325,0.91667 -0.8217,4.12849 -1.5299,7.13737 -2.32437,9.87539 1.95668,5.73594 9.55999,-9.24378 7.6258,-15.02401 17.47598,-27.06172 22.14399,-27.06172 4.24393,0 10.68498,9.79123 14.27438,21.69892 2.03291,6.74407 3.38987,18.23143 3.44579,29.17026 0.084,16.43247 -0.3963,18.78366 -5.3747,26.31047 -3.00682,4.546 -7.67253,9.7106 -10.36825,11.47691 -7.20301,4.71959 -18.92023,5.46984 -25.941,1.661 z"
       id="path5221"
       inkscape:connector-curvature="0"
       transform="matrix(1.1857453,-0.07971773,0.07714988,1.1475503,-57.03385,-47.485936)" />
  </g>
  <g
     inkscape:label="Layer 1"
     inkscape:groupmode="layer"
     id="layer1">
    <path
       style="fill:#000000;fill-rule:evenodd;stroke:none"
       d="m 276.51861,519.21839 c -0.13426,0.0895 -0.78362,-0.5787 -1.88105,-2.0135 -1.09742,-1.4348 -2.64456,-3.63799 -4.46315,-6.67128 -1.81859,-3.03329 -3.91203,-6.89939 -5.95206,-11.67867 -2.04004,-4.77929 -4.03108,-10.47501 -5.43567,-17.14111 -1.10774,-5.28774 -1.81875,-11.15015 -1.92131,-17.50001 -0.10256,-6.34985 0.40495,-13.18897 1.69561,-20.33155 1.06316,-5.87844 2.61996,-11.95184 4.66588,-18.16307 2.04592,-6.21124 4.58177,-12.56031 7.53559,-18.98342 5.42758,-11.81534 12.27208,-23.93682 20.03284,-36.38816 6.84457,-10.98741 14.4174,-22.25173 22.26071,-33.99317 7.84332,-11.74145 15.95846,-23.95899 23.6141,-37.02506 6.39369,-10.91931 12.48198,-22.40661 17.17186,-34.73028 4.5653,-10.12303 8.11523,-20.86076 9.25033,-31.88158 -2.801,-0.36412 -5.7198,-1.36734 -8.18984,-3.41386 -2.32045,-2.30887 -3.95557,-5.10415 -4.88284,-8.06283 -0.94229,-3.04523 -1.32588,-5.9948 -1.5605,-8.69884 -0.30157,-3.14917 -0.49488,-6.18293 -0.87057,-9.06343 -0.73701,-5.57078 -0.70251,-11.43691 0.58676,-17.26685 1.10296,-4.89383 3.15785,-9.60288 6.1025,-13.78348 2.84352,-4.00083 6.36189,-7.41288 10.23239,-10.22936 4.02365,-2.93277 8.36792,-5.29722 12.81373,-7.2503 9.30317,-4.08464 19.10952,-6.66828 28.85537,-8.8101 8.87641,-1.96821 17.73987,-3.47876 26.31497,-5.64607 4.38991,-1.07523 8.68758,-3.22521 12.91741,-5.79753 10e-6,-1e-5 3e-5,-2e-5 4e-5,-3e-5 4.85542,-2.98109 9.45846,-6.58534 13.95039,-10.48817 9.76342,-8.49054 18.70958,-18.2846 27.53768,-28.49982 7.60898,-8.81583 15.01857,-18.09932 22.93886,-27.242392 2.61974,-3.037327 5.39418,-6.199175 8.61512,-9.172584 1.02691,-0.966381 2.26299,-2.008578 3.78844,-2.98865 0.75206,-0.700008 2.39718,-1.3772 4.93341,-1.622776 5e-5,-5e-6 10e-5,-1e-5 1.5e-4,-1.5e-5 2.55542,0.355173 4.25327,1.385333 5.01112,2.951321 0.72791,1.528867 1.00534,2.627111 0.96208,3.215398 0.1199,1.378736 0.10387,2.627196 0.0295,3.73812 -0.0483,0.720726 -0.12101,1.383056 -0.19695,1.985256 -0.58277,5.58585 -1.52041,10.930363 -2.24513,16.106867 -1e-5,1.6e-5 -1e-5,3.2e-5 -1e-5,4.8e-5 -0.94855,6.818352 -1.72876,13.550952 -1.98835,20.197647 -0.24217,6.7244 -0.0836,13.28316 1.29547,19.38478 0.40483,1.89251 1.12903,3.85827 1.95525,5.9293 1.06412,2.63323 2.30527,5.24971 3.61973,7.88501 3.35433,6.71835 7.0896,13.28704 10.84374,19.88054 9.22057,16.17583 18.57962,32.15972 26.48061,48.67775 3.91493,8.18011 7.49489,16.5402 10.29498,25.16198 2.472,7.54375 4.35522,15.47271 4.70175,23.65015 0.14809,3.57728 -0.0571,7.23809 -0.76607,10.87793 0,2e-5 -1e-5,3e-5 -1e-5,5e-5 -0.66523,3.4153 -1.83543,6.77829 -3.56509,9.909 -10e-6,2e-5 -2e-5,3e-5 -2e-5,5e-5 -1.77534,3.18057 -4.09482,5.99274 -6.79924,8.32645 -3.07776,2.63758 -6.50907,4.64094 -10.03367,6.12299 -5.16331,2.32023 -10.83512,3.50668 -16.4752,3.39988 -5.64007,-0.10679 -11.24837,-1.50685 -16.33588,-4.33538 -3.70015,6.22117 -5.59228,13.77381 -6.7535,21.48129 -2.52642,9.87641 -3.65937,19.98947 -4.29533,29.98407 0,1e-5 0,2e-5 0,4e-5 -0.80035,12.66812 -0.75151,25.06349 -0.35168,37.12361 0.39984,12.06012 1.15095,23.78495 1.88706,35.11925 0.83666,12.81773 1.72956,25.14408 2.41467,36.94613 0.69138,11.89369 1.18254,23.27941 1.16808,34.08807 -0.008,10.08206 -0.44507,19.74906 -1.86435,28.76705 -0.6316,4.01704 -1.48177,7.93336 -2.66643,11.66072 -1.05545,3.33812 -2.42187,6.55712 -4.21801,9.47214 -1.76868,2.82891 -3.8723,5.25484 -6.12345,7.35051 -2.25115,2.09567 -4.65018,3.86105 -7.05593,5.36027 -6.12607,3.83469 -12.28109,6.17897 -17.86773,7.86056 -5.77086,1.74241 -11.01016,2.81492 -15.56967,3.49396 -4.55951,0.67904 -8.44193,0.96542 -11.57295,1.07162 -3.13102,0.1062 -5.51278,0.033 -7.10831,-0.083 -1.59553,-0.11605 -2.40609,-0.27418 -2.40609,-0.42594 0,-0.15176 0.81041,-0.29414 2.38782,-0.47458 1.57742,-0.18044 3.9231,-0.39994 6.98431,-0.79038 3.0612,-0.39044 6.84008,-0.95275 11.24875,-1.88846 4.40866,-0.93571 9.44981,-2.24569 14.96401,-4.18735 5.31897,-1.87861 11.09533,-4.3409 16.63564,-8.11118 2.16113,-1.47781 4.28971,-3.15911 6.24089,-5.08498 1.95119,-1.92587 3.72532,-4.09626 5.13105,-6.55802 1.46671,-2.52308 2.57171,-5.40117 3.46694,-8.48273 0.99399,-3.44251 1.68064,-7.11549 2.18905,-10.95773 1.14297,-8.6462 1.32835,-17.99836 1.13249,-27.93547 -0.21564,-10.62711 -0.92774,-21.86506 -1.82999,-33.69266 -0.89568,-11.72814 -1.99312,-24.01746 -3.0296,-36.86212 -0.91854,-11.33458 -1.84232,-23.12528 -2.4031,-35.34448 -0.56078,-12.2192 -0.75883,-24.86697 -0.094,-37.90841 0,-10e-6 0,-2e-5 0,-4e-5 0.52046,-10.29663 1.61984,-20.93269 4.21389,-31.60191 2.95511,-8.80907 7.07887,-17.82689 13.50427,-25.92902 4.5415,1.98597 9.70525,2.79077 15.01421,2.57682 5.30897,-0.21394 10.76309,-1.4466 15.83367,-3.51232 2.80169,-1.22922 5.41875,-2.75402 7.58686,-4.67552 1.89774,-1.66595 3.52289,-3.65715 4.72205,-5.8572 0,-10e-6 10e-6,-2e-5 10e-6,-3e-5 1.19926,-2.1675 2.01784,-4.62675 2.51834,-7.20121 1e-5,-1e-5 1e-5,-2e-5 1e-5,-4e-5 0.53818,-2.76842 0.66692,-5.7011 0.54106,-8.70072 -0.28276,-6.93012 -2.05575,-13.98792 -4.36732,-21.07833 -2.6509,-8.0542 -6.11185,-16.00046 -9.94223,-23.93848 -7.72676,-16.00361 -17.02814,-31.7347 -26.33217,-47.9695 -3.78107,-6.59013 -7.61673,-13.3065 -11.14877,-20.33137 -1.38774,-2.75754 -2.74142,-5.60784 -3.95801,-8.58852 -0.9477,-2.29544 -1.84046,-4.78718 -2.46157,-7.51138 -1.6094,-7.34638 -1.8557,-14.76062 -1.55301,-21.93441 0.28118,-7.147131 1.08535,-14.211611 2.06022,-21.187147 1e-5,-1.7e-5 1e-5,-3.3e-5 1e-5,-5e-5 0.75157,-5.410727 1.67381,-10.640454 2.19807,-15.755464 0.0507,-0.621852 0.10826,-1.188663 0.15141,-1.698454 0.0665,-0.785789 0.0986,-1.435248 0.0187,-1.942042 -0.13523,-0.279556 0.01,-0.07227 0.30425,0.699645 0.47833,1.077833 1.67366,1.72427 3.66675,2.079443 2e-5,-5e-6 4e-5,-10e-6 5e-5,-1.5e-5 0.8935,-0.245542 1.01768,-0.07794 0.37942,0.09407 -0.68959,0.409225 -1.44316,1.082951 -2.33921,1.882265 -2.6968,2.460373 -5.21002,5.350535 -7.82735,8.353785 -7.75145,8.933153 -15.17151,18.208049 -22.95996,27.204768 -8.95272,10.35458 -18.26041,20.46747 -28.59918,29.43757 -4.75844,4.13199 -9.81107,8.04195 -15.28962,11.40097 -1e-5,0 -2e-5,1e-5 -4e-5,2e-5 -4.73722,2.92914 -9.96285,5.44633 -15.68081,6.89806 -9.08101,2.24672 -18.03298,3.73897 -26.61584,5.59922 -9.5238,2.08362 -18.73382,4.4187 -27.11012,8.08561 -3.98427,1.74309 -7.75072,3.74365 -11.08787,6.16789 -3.18342,2.31719 -6.01219,4.98885 -8.16488,8.02313 -2.23944,3.11906 -3.83254,6.71314 -4.70278,10.44389 -1.07156,4.48893 -1.09546,9.29794 -0.53887,14.07596 0.39321,3.27071 0.57312,6.40155 0.83188,9.36922 0.24696,2.5531 0.48018,4.86744 1.11671,6.81513 0.55325,1.72337 1.41055,3.2987 2.56723,4.40322 1.99272,2.33444 4.7988,4.16859 7.83123,5.87507 -0.32312,13.77608 -3.20305,26.82062 -7.22436,38.85779 -5.08722,12.90894 -11.50555,24.72382 -18.1771,35.77361 -7.97953,13.22434 -16.33631,25.44856 -24.36926,37.09416 -8.03295,11.64561 -15.74357,22.71179 -22.7027,33.44532 -7.89028,12.1765 -14.8387,23.90369 -20.37792,35.29374 -3.00813,6.19217 -5.61453,12.27942 -7.74566,18.21912 -2.13113,5.9397 -3.78778,11.73188 -4.96386,17.33704 -1.42648,6.79176 -2.12455,13.31222 -2.24113,19.38798 -0.11657,6.07576 0.34675,11.70867 1.19771,16.81792 1.0655,6.44547 2.71936,12.04141 4.43514,16.79637 1.71577,4.75496 3.49779,8.67232 5.01952,11.79964 1.52172,3.12731 2.7864,5.46754 3.60979,7.05923 0.82339,1.5917 1.20695,2.43703 1.07269,2.52654 z"
       id="path3881"
       inkscape:path-effect="#path-effect3883"
       inkscape:original-d="m 276.51861,519.21839 c -68.10263,-102.15394 83.95636,-193.83897 89.52041,-288.45466 -14.38174,-5.10486 -12.27132,-14.61819 -13.9254,-27.8508 -5.88012,-47.04096 50.99881,-50.04987 81.56304,-57.69093 37.22901,-9.30725 83.57152,-85.541728 93.4991,-85.541728 4.59069,0 -7.63234,38.26546 -1.98934,63.658958 6.97566,31.3905 95.49519,137.26174 39.78685,161.13675 -11.99397,5.14027 -23.39922,4.21513 -31.82948,0 -36.41992,51.51849 8.74543,205.57818 -15.91474,246.67847 -11.57126,19.28542 -45.28557,25.86145 -65.6483,25.86145"
       inkscape:connector-curvature="0" />
    <path
       style="fill:#000000;fill-rule:evenodd;stroke:none"
       d="m 284.47598,529.1651 c -0.0448,0.098 -0.58777,-0.0383 -1.62254,-0.37126 -1.03477,-0.33298 -2.56258,-0.86451 -4.594,-1.48865 -2.03142,-0.62415 -4.56835,-1.34459 -7.61441,-1.94508 -3.04607,-0.60049 -6.60363,-1.0861 -10.63716,-1.06423 -3.02921,0.0106 -6.31851,0.33442 -9.78006,1.10001 -3.46155,0.76558 -7.09689,1.97399 -10.74293,3.72928 -1e-5,0 -2e-5,0 -2e-5,10e-6 -3.10513,1.4908 -6.22419,3.35806 -9.33371,5.58475 -3.10952,2.22669 -6.20932,4.81368 -9.2878,7.6841 -6.06974,5.66993 -12.02392,12.48146 -18.08348,20.10878 -9.53986,12.01249 -19.25376,25.92614 -28.89337,41.7124 -9.63961,15.78626 -19.19718,33.45242 -28.78075,52.63312 -7.56153,15.14442 -15.13795,31.26135 -23.01347,48.15761 -7.87552,16.89627 -16.04897,34.57253 -25.021578,52.73001 -4.507262,9.0729 -7.526457,19.3462 -11.556992,29.8056 -3.765795,10.00308 -8.515552,20.5733 -16.849142,29.11579 -2.443992,2.19893 -4.877387,3.17435 -6.597953,3.71136 -1.6e-5,10e-6 -3.1e-5,10e-6 -4.7e-5,2e-5 -2.325511,0.92129 -4.500299,1.64591 -6.373579,2.51473 -0.766119,0.3737 -1.359981,0.64602 -1.690292,0.92571 -6e-6,0 -1.3e-5,10e-6 -1.9e-5,10e-6 -0.141696,0.36776 -0.128638,0.0542 0.397533,-0.87987 -0.03379,-1.52337 -0.04398,-2.20879 -0.39253,-2.2448 0.05611,0.19715 0.70106,0.44372 1.650253,1.00127 -10e-7,0 -2e-6,0 -3e-6,0 -0.03221,0.0158 0.0976,0.0107 0.284513,0.0239 4e-6,0 8e-6,0 1.2e-5,0 0.290313,0.0199 0.749662,-0.13243 1.351076,-0.33493 1.767752,-0.62121 3.545131,-1.99508 5.518205,-3.55977 2.668788,-2.1913 5.178485,-4.74326 7.680809,-7.45138 1.2e-5,-10e-6 2.5e-5,-2e-5 3.7e-5,-4e-5 3.12258,-3.38954 6.116906,-6.98384 9.070693,-10.69382 7.244495,-9.10127 14.11578,-18.76531 20.944154,-28.71039 7.74208,-11.27935 15.35767,-22.909 22.98654,-34.77676 14.67457,-22.82895 29.30288,-46.56664 44.66773,-70.62126 5.82314,-9.11799 11.75771,-18.32758 18.07831,-27.43471 2.3134,-3.33443 4.70104,-6.68372 7.24627,-9.98139 1e-5,-2e-5 3e-5,-4e-5 4e-5,-6e-5 1.76344,-2.29836 3.68239,-4.68641 5.94742,-6.9708 7.7475,-7.67675 17.1074,-13.10747 26.48109,-17.5788 9.98444,-4.81494 20.20758,-8.77366 30.08715,-13.12909 9.36284,-4.16179 18.50181,-8.52392 26.22047,-14.52755 3.53272,-2.7385 6.75979,-5.78343 9.37913,-9.20954 2e-5,-2e-5 3e-5,-4e-5 4e-5,-5e-5 4.22847,-3.0384 7.91967,-6.50346 10.88698,-10.19046 -0.30193,7.34064 -1.24055,14.58131 -2.73184,21.6654 -2.40073,11.40432 -6.20836,22.29247 -10.99206,32.45867 -9.52089,16.38917 -21.2652,30.94674 -33.29556,44.65398 -12.49764,14.26349 -25.36721,27.71238 -37.22901,41.55349 -11.84402,13.84516 -22.76755,28.07866 -30.94034,43.4496 -18.63978,34.93452 -32.46508,71.08071 -43.65131,106.5238 -6.21453,19.6911 -10.63358,39.50898 -13.95686,59.03425 -0.69169,4.10865 -1.37906,8.04907 -1.63973,11.86128 -0.0497,0.98944 -0.1173,1.74791 -0.0376,2.25913 0.0466,0.15266 0.001,0.0778 -0.0895,-0.24444 0.0883,-0.25485 -0.42589,-0.80298 -1.50513,-1.72006 -1.41454,-0.6068 -2.47256,-0.73966 -3.23027,-0.3674 -0.69033,0.32454 -1.01047,0.47689 -0.94606,0.51605 0,0 0,0 0,0 0.0635,0.008 0.25762,-0.33562 0.69429,-0.89903 10e-6,-10e-6 2e-5,-2e-5 4e-5,-4e-5 1.31575,-1.87463 2.48007,-4.05056 3.75435,-6.3447 3.9043,-7.07965 7.6774,-14.26679 11.85513,-21.23497 4.44809,-7.47119 9.34379,-14.95166 15.68837,-21.29445 7.47063,-7.38124 15.7554,-13.26715 23.73698,-18.83982 9.75458,-6.83338 19.40647,-13.20563 28.52141,-19.74839 9.33001,-6.70833 18.15101,-13.49116 25.69907,-21.05802 3.33811,-3.38512 6.47329,-6.88415 9.0971,-10.54854 2.62381,-3.66439 4.73633,-7.49414 6.07619,-11.53199 3.49127,-10.25119 6.64892,-20.29216 9.6424,-30.04493 2.99348,-9.75278 5.82248,-19.21746 8.60335,-28.33401 2.78087,-9.11655 5.51321,-17.8851 8.26555,-26.26195 2.75233,-8.37685 5.52422,-16.36215 8.34246,-23.92666 3.84605,-10.32515 7.77785,-19.87005 11.76806,-28.54417 3.9902,-8.67412 8.0362,-16.47928 12.01974,-23.40178 4.46454,-7.76038 8.86495,-14.40312 12.92991,-19.95266 4.06495,-5.54955 7.79142,-10.01206 10.92858,-13.49121 3.13715,-3.47915 5.68234,-5.98019 7.44802,-7.59982 1.76568,-1.61964 2.74987,-2.3615 2.86325,-2.24812 0.11338,0.11338 -0.64622,1.0793 -2.1765,2.90508 -1.53029,1.82577 -3.82897,4.5149 -6.70226,8.15266 -2.87329,3.63776 -6.31833,8.2293 -10.08856,13.87227 -3.77022,5.64296 -7.86249,12.34345 -12.02261,20.12624 -3.71207,6.94635 -7.4822,14.75233 -11.20169,23.41519 -3.7195,8.66285 -7.38577,18.18442 -10.98555,28.49148 -2.63592,7.54889 -5.22935,15.52025 -7.80998,23.89308 -2.58062,8.37282 -5.14801,17.14724 -7.77402,26.28922 -2.62602,9.14198 -5.31028,18.65165 -8.17289,28.47982 -2.86261,9.82817 -5.90325,19.97497 -9.29546,30.37421 -1.60452,4.7953 -3.96853,9.26332 -6.82647,13.4235 -2.85793,4.16018 -6.20988,8.01251 -9.74308,11.5846 -7.9176,8.09216 -16.98499,15.2542 -26.38505,22.13727 -9.20665,6.75223 -18.83027,13.24438 -28.39882,20.08116 -7.8796,5.64834 -15.77623,11.32426 -22.51401,18.15141 -5.5067,5.50853 -9.90368,12.46592 -14.25139,19.78114 -3.96503,6.72043 -7.62964,13.83922 -11.54453,21.05589 -1.2194,2.26521 -2.52159,4.70064 -4.17579,7.13488 -1e-5,10e-6 -2e-5,3e-5 -3e-5,4e-5 -0.39688,0.64592 -1.05697,1.52226 -2.09772,2.50287 -3e-5,2e-5 -5e-5,5e-5 -8e-5,7e-5 -0.25662,0.32198 -0.92434,0.74306 -2.02009,1.20497 -1.03524,0.46632 -2.41301,0.33723 -4.07857,-0.42087 -1.38314,-1.10017 -2.07828,-1.98149 -2.11965,-2.56671 -0.30237,-0.86054 -0.44136,-1.51281 -0.46186,-1.93501 -0.15656,-1.51351 -0.10944,-2.80696 -0.0229,-3.85685 0.28815,-4.39962 0.9819,-8.63614 1.65751,-12.73125 3.24061,-19.85822 7.6347,-40.1015 13.89394,-60.32647 11.10358,-35.88431 24.99324,-72.62193 43.87973,-108.32505 8.66129,-16.31678 19.95252,-31.18187 32.02274,-45.29767 12.06628,-14.13602 24.94177,-27.64283 37.22602,-41.70323 11.80898,-13.53939 23.16795,-27.5909 32.13069,-43.11586 6.39781,-9.13997 11.8971,-18.87701 16.06421,-29.00487 2.58851,-6.29118 4.64665,-12.69532 6.08865,-19.15762 -0.10404,5.52703 -1.08394,10.7047 -2.75236,15.32921 -2e-5,2e-5 -3e-5,4e-5 -5e-5,6e-5 -3.27782,4.23713 -7.11293,7.88529 -11.20371,11.02231 -8.87213,6.7831 -18.70017,11.54076 -28.30461,15.72854 -10.1688,4.47003 -20.28882,8.36334 -29.79783,12.94195 -8.92083,4.34448 -17.38511,9.11124 -23.82084,15.61772 -1.77111,1.75175 -3.42212,3.82544 -5.13984,6.02409 -1e-5,2e-5 -2e-5,4e-5 -4e-5,5e-5 -2.40052,3.09133 -4.6986,6.30175 -6.97629,9.56319 -6.21761,8.90611 -12.11058,17.99751 -17.94946,27.07446 -15.38328,23.91817 -30.1133,47.61487 -44.95725,70.47595 -7.71157,11.87684 -15.43925,23.54826 -23.31865,34.89647 -6.93543,9.99165 -13.994187,19.79103 -21.494703,29.1025 -3.05923,3.79874 -6.217785,7.53703 -9.559488,11.12207 -1.3e-5,10e-6 -2.6e-5,2e-5 -3.9e-5,4e-5 -2.649868,2.85079 -5.474123,5.66373 -8.615456,8.22781 -2.172588,1.82839 -4.781698,3.66016 -7.988543,4.9257 -1.184325,0.47479 -2.599702,0.80828 -4.213776,0.87977 -3.2e-5,0 -6.4e-5,0 -9.6e-5,0 -1.429901,0.057 -2.936052,-0.25028 -4.411827,-0.95627 -3.4e-5,-2e-5 -6.7e-5,-3e-5 -10e-5,-5e-5 -1.176116,-0.50511 -2.676731,-1.41482 -4.20578,-2.9777 -1.198049,-0.97922 -1.834258,-2.94687 -1.555468,-5.69828 0.853973,-2.22193 1.920406,-3.5058 2.844005,-3.9285 2.3e-5,-10e-6 4.5e-5,-3e-5 6.8e-5,-5e-5 1.19725,-0.85376 2.319959,-1.42904 3.281821,-1.83857 2.440458,-1.08644 4.756548,-1.85181 6.813269,-2.64355 1.8e-5,0 3.5e-5,-10e-6 5.3e-5,-2e-5 1.926986,-0.88883 3.377585,-1.20204 3.687508,-1.75702 7.060646,-6.85175 11.292422,-16.44981 15.171444,-26.08476 3.936309,-10.00585 7.164512,-20.51509 12.12401,-30.37571 9.081656,-17.95104 17.415468,-35.49925 25.487568,-52.31692 8.07211,-16.81766 15.88126,-32.90531 23.69745,-48.0426 9.89307,-19.17259 19.82326,-36.85963 29.85551,-52.65344 10.03226,-15.79381 20.15859,-29.70144 30.09929,-41.66504 6.30772,-7.59395 12.60551,-14.43122 19.03745,-20.1267 3.26002,-2.89199 6.57678,-5.49501 9.9171,-7.72872 3.34032,-2.23371 6.70402,-4.09898 10.05042,-5.57623 0,0 1e-5,0 2e-5,0 3.95629,-1.74219 7.87347,-2.88038 11.58086,-3.54311 3.70739,-0.66273 7.20655,-0.85101 10.40635,-0.71148 4.24634,0.1932 7.91333,0.90042 11.01077,1.71918 3.09744,0.81875 5.62744,1.7542 7.62292,2.58704 1.99549,0.83285 3.45802,1.56691 4.41582,2.09839 0.95781,0.53149 1.41174,0.8624 1.36696,0.96038 z"
       id="path3905"
       inkscape:path-effect="#path-effect3907"
       inkscape:original-d="m 284.47598,529.1651 c -35.25964,-16.11289 -58.74933,1.30264 -83.55239,31.82948 -46.28075,56.96092 -74.74965,129.60589 -107.424492,194.95557 -8.880236,17.76047 -13.410837,43.25097 -27.850795,57.69093 -3.963397,3.9634 -23.354464,6.22685 -11.936055,11.93606 22.631477,11.31573 124.219862,-175.94277 149.200682,-200.9236 27.01962,-27.01962 86.74055,-29.45792 99.46713,-67.63764 -9.50784,75.25297 -85.776,117.81218 -119.36055,181.03017 -18.07466,34.02287 -32.29552,70.72042 -43.76554,107.42449 -6.11663,19.57322 -10.58722,39.65122 -13.92539,59.68032 -7.47669,44.8601 10.62625,-12.6156 31.82948,-33.8189 23.83196,-23.83193 82.56331,-50.74499 93.49909,-83.55235 22.87728,-68.63182 37.82407,-153.20593 89.52042,-204.90228"
       inkscape:connector-curvature="0" />
    <path
       style="fill:#000000;fill-rule:evenodd;stroke:none"
       d="m 326.25217,594.81341 c 0.13867,-0.0269 0.58765,1.49622 1.27084,4.52782 0.6832,3.0316 1.60223,7.57339 2.5406,13.59766 0.93838,6.02428 1.8997,13.53386 2.48707,22.48061 0.58738,8.94674 0.80571,19.33422 0.0134,31.0456 -0.68709,10.11196 -2.16038,21.1754 -4.75195,32.99659 -2.59157,11.82119 -6.30441,24.40232 -11.40749,37.43044 -3.75855,9.59372 -8.1719,19.42515 -12.86634,29.61786 -4.69444,10.19272 -9.6727,20.74552 -14.30355,31.88966 -1e-5,2e-5 -2e-5,4e-5 -2e-5,5e-5 -4.21208,10.14218 -8.21317,20.75709 -11.19776,31.9817 -2.6345,9.93275 -4.51336,20.35157 -4.44734,31.00388 0.0563,11.62455 0.11157,23.56389 0.16591,35.8082 0,3e-5 0,7e-5 0,10e-5 -0.0291,1.49821 -0.28832,2.73168 -0.5405,3.69818 -10e-6,2e-5 -10e-6,4e-5 -2e-5,6e-5 -0.27082,1.16258 -0.55668,2.2055 -0.73761,3.15234 0,2e-5 -1e-5,3e-5 -1e-5,5e-5 -0.0854,0.8865 -0.2692,1.34117 -0.16411,1.27848 0.033,-0.17729 -0.19084,-0.47095 -0.64194,-0.97535 -0.63816,-0.37041 -0.97728,-0.54638 -1.12078,-0.46015 -0.83458,0.15998 -1.1916,0.2057 -1.08058,0.27877 0.0457,-0.0108 0.17165,-0.17656 0.41564,-0.44027 0.69125,-0.80458 1.31055,-1.8517 2.0015,-3.02128 1.90983,-3.28934 3.5661,-6.84929 5.24802,-10.52326 1.70486,-3.73351 3.35454,-7.555 5.04148,-11.42472 0.6275,-1.44008 1.26516,-2.9039 1.94072,-4.37944 0.34999,-0.79147 0.78238,-1.77338 1.443,-2.86456 9.48986,-15.31923 19.72379,-30.78985 30.07467,-46.74381 10.35088,-15.95396 20.81957,-32.3907 30.54892,-49.78135 8.97056,-16.0341 17.32315,-32.87649 24.00425,-50.74238 6.44566,-17.23611 11.3219,-35.46087 13.62757,-54.34981 0.0614,-0.46658 0.0812,-1.04731 0.11398,-1.73639 0.043,-1.02728 0.0649,-2.07719 0.082,-3.14911 0,-2e-5 0,-5e-5 0,-8e-5 0.0482,-3.06083 0.044,-6.15081 0.0314,-9.2696 0,-3e-5 0,-6e-5 0,-9e-5 -0.0338,-8.22509 -0.1529,-16.52699 -0.27193,-24.90585 -0.11072,-7.78589 -0.24048,-15.63948 -0.30812,-23.5615 0,-3e-5 0,-6e-5 -10e-6,-9e-5 -0.0218,-2.52411 -0.0434,-5.08251 -0.0134,-7.67522 0.007,-0.70446 0.0177,-1.46963 0.0615,-2.2943 0.006,-0.18836 0.0281,-0.49639 0.083,-0.92215 0.67697,-0.56565 1.42157,-1.34546 2.24101,-2.33726 -1e-5,-2e-5 10e-6,-2e-5 2e-5,-2e-5 0.73073,0.10655 1.39668,0.20495 2.00031,0.29691 0.32589,0.0496 0.6343,0.0966 0.92533,0.14746 2.01463,0.35175 3.09948,0.64417 3.26178,0.81548 0.26058,0.78781 0.36683,1.25817 0.3412,1.40174 0.0737,0.77206 0.074,1.35059 0.0528,1.72927 -0.0404,1.60236 -0.16901,3.10688 -0.29077,4.51521 -0.42031,4.96355 -0.9374,9.89372 -1.39733,14.80241 -1.26058,13.50134 -2.37935,27.08389 -2.347,40.72047 0.0191,15.28632 -1.07277,30.62795 -2.62408,46.03537 -1.5513,15.40743 -3.56195,30.88065 -5.28939,46.43427 -1.68821,15.27191 -3.17654,30.65577 -3.70749,46.15235 -0.49439,14.57679 -0.17771,29.25142 1.91912,43.72847 0.27207,2.15282 1.1841,4.50043 2.17143,7.12417 10e-6,3e-5 2e-5,6e-5 3e-5,9e-5 1.4138,3.63313 3.08956,7.23337 4.88052,10.84923 2e-5,3e-5 3e-5,6e-5 5e-5,9e-5 4.3253,8.72002 9.22927,17.22536 14.59565,25.50383 2e-5,3e-5 4e-5,6e-5 6e-5,9e-5 2.57875,3.97496 5.25296,7.86789 8.0908,11.61439 2e-5,3e-5 4e-5,5e-5 6e-5,8e-5 2.38306,3.13725 4.80548,6.1384 7.441,8.8071 1.96662,1.89079 3.60504,3.56996 5.26574,4.25367 0.50322,0.14282 0.64984,0.28762 0.3855,0.19232 -0.48197,0.0413 -0.81834,0.18952 -1.19837,0.52254 -0.63447,0.85479 -0.92959,1.25321 -0.80867,1.28869 0.006,0.061 -0.002,-0.083 0.0319,-0.41267 0.0582,-0.9561 -0.0772,-2.11374 -0.22925,-3.46252 -10e-6,-4e-5 -10e-6,-7e-5 -10e-6,-10e-5 -0.45851,-3.74458 -1.28307,-7.57834 -2.13629,-11.54586 -10e-6,-3e-5 -10e-6,-7e-5 -2e-5,-10e-5 -0.89901,-4.15362 -1.88455,-8.35938 -2.79614,-12.65315 -0.36416,-1.71101 -0.72503,-3.47528 -1.03017,-5.30142 -0.21153,-1.14941 -0.42727,-2.5757 -0.45248,-4.28192 -0.0211,-35.49475 3.40781,-71.27026 6.91082,-107.27376 3.44188,-35.50172 6.91459,-71.37274 6.89641,-107.57525 0.006,-7.60244 0.67711,-14.97081 0.98522,-22.1299 1e-5,-4e-5 1e-5,-7e-5 1e-5,-1.1e-4 0.27437,-7.20446 0.4415,-14.19122 -0.89629,-20.65551 0,-1e-5 -10e-6,-3e-5 -10e-6,-4e-5 -0.0174,-0.64486 -0.74465,-1.6778 -1.58041,-3.23406 -2e-5,-3e-5 -4e-5,-7e-5 -5e-5,-1e-4 -0.95373,-1.59156 -2.10673,-3.26333 -3.27828,-5.12927 -2e-5,-4e-5 -4e-5,-7e-5 -6e-5,-1e-4 -0.83706,-1.09759 -1.99135,-2.98528 -2.72876,-5.86543 -0.55071,-1.05137 -0.18267,-2.94587 1.30979,-5.46464 2.41708,-1.94918 4.25412,-2.59906 5.20983,-2.20013 2.30404,0.4265 3.4377,0.8634 3.40307,1.25265 0.54451,0.48359 0.87832,0.83684 1.0146,1.04259 0.56878,0.72952 0.96361,1.34629 1.23005,1.81295 1.05276,1.76015 1.92814,3.4866 2.73582,5.11286 2.86088,5.72985 5.47403,11.52238 8.04936,17.27146 0.0806,0.17982 0.16115,0.35966 0.24167,0.53952 7.74583,17.30242 15.10427,34.64625 22.36297,51.89404 7.56351,17.97125 14.99187,35.88597 22.26512,53.74159 2.5537,6.26912 5.0953,12.53904 7.5863,18.82435 10e-6,3e-5 2e-5,6e-5 4e-5,10e-5 0.7772,1.96086 1.55588,3.93591 2.31818,5.93182 0.24114,0.63108 0.48617,1.27883 0.72865,1.94552 0.12823,0.34443 0.29104,0.79496 0.46379,1.35903 4.39146,14.7023 7.00531,29.63931 9.16498,44.37261 2.18138,14.79983 3.98163,29.42256 6.81736,43.62114 1.59795,8.03765 2.56064,16.0908 3.23679,24.06212 0.6444,7.56396 1.02294,15.09306 1.28663,22.56946 0.19513,5.51292 0.28156,10.9349 0.53297,16.25681 0.0818,1.50903 0.1149,2.80484 0.29607,3.86068 0.16746,0.43557 0.0393,0.27653 -0.25597,-0.53663 0.24476,-0.36268 -0.70497,-1.08762 -2.8312,-2.23247 -2.81112,-0.0497 -4.32867,0.32469 -4.57332,1.17711 6.40618,-6.37844 11.53104,-14.04217 15.32849,-22.2851 2e-5,-3e-5 3e-5,-6e-5 4e-5,-9e-5 4.00012,-8.67125 6.55379,-18.02747 8.15195,-27.54601 3.63491,-21.59016 2.38756,-43.7477 -0.33552,-65.44969 -2.96336,-23.4039 -7.9593,-46.31262 -13.39239,-68.84766 -4.87132,-20.18542 -10.31317,-40.10503 -14.72457,-60.10617 -1.52511,-7.09469 -5.01626,-13.81015 -9.37452,-19.91649 -4.14217,-5.77727 -9.14678,-10.99931 -14.46401,-15.95188 -4.07943,-3.79225 -8.55788,-7.42092 -12.89385,-11.47038 -1.24342,-1.10163 -2.74545,-2.54496 -4.11803,-4.58632 -0.47534,-0.55772 -0.94292,-1.65399 -1.23413,-3.29207 -0.14909,-1.68196 0.40309,-3.25827 1.62469,-4.59427 2.08722,-2.03286 4.68668,-3.29378 7.42944,-3.70443 4e-5,0 8e-5,-10e-6 1.2e-4,-2e-5 2.90624,-0.3898 5.611,-0.0764 7.96937,0.58256 5.86568,1.58444 10.9075,4.4849 15.36565,7.51514 4.73041,3.15694 9.12913,6.64924 13.29629,10.27632 3e-5,2e-5 5e-5,4e-5 7e-5,6e-5 2.68273,2.33033 5.32239,4.74556 7.86053,7.29308 2e-5,2e-5 4e-5,4e-5 7e-5,6e-5 25.57303,25.67939 47.39816,53.61107 64.72257,82.89229 2e-5,2e-5 3e-5,5e-5 4e-5,7e-5 9.32638,15.77832 17.36285,31.84614 24.45436,47.92546 7.09151,16.07932 13.23799,32.1702 18.73104,48.04251 1.32775,3.84782 2.97363,7.65743 4.62519,11.53406 1.99128,4.66499 4.01507,9.32331 5.91663,14.03507 1.89645,4.69203 3.69669,9.46539 5.13399,14.38156 1e-5,3e-5 2e-5,5e-5 3e-5,8e-5 1.20832,4.03161 2.22481,8.38805 2.24601,13.00649 -0.005,0.84842 -0.0568,1.54725 -0.0725,2.09935 -0.0244,1.05378 -0.0304,2.0477 0.0376,2.97656 0.18725,0.96378 0.0761,1.41634 0.0969,1.15667 0.0288,-0.45829 -0.73431,-0.83505 -2.30509,-1.32002 -1.498,0.34399 -2.09215,0.44261 -1.79246,0.56436 0,0 10e-6,-1e-5 2e-5,-1e-5 0.65011,-0.34856 0.83561,-1.8189 1.30515,-3.60526 0.41502,-2.31793 0.46534,-4.80838 0.44974,-7.39882 -0.0253,-2.64681 -0.18319,-5.32625 -0.35943,-8.03664 -0.13262,-1.97253 -0.32514,-4.0824 -0.32313,-6.32962 0.0661,-18.48546 -0.95325,-36.41005 -3.23389,-53.47232 -2.28064,-17.06227 -5.82117,-33.26311 -10.63317,-48.41741 -5.76296,-18.16788 -13.48318,-34.73572 -22.38973,-49.36793 -8.90654,-14.63221 -18.99971,-27.33397 -29.60981,-38.09284 -1e-5,-10e-6 -2e-5,-2e-5 -3e-5,-3e-5 -0.94999,-0.96947 -2.02947,-1.88591 -3.14608,-2.83435 -1.71771,-1.45439 -3.46362,-2.85933 -5.20914,-4.24543 -5.15758,-4.09513 -10.24583,-7.95665 -15.17847,-11.67858 -15.18687,-11.4589 -28.87415,-21.47986 -40.76219,-30.22524 -1e-5,-1e-5 -2e-5,-2e-5 -3e-5,-2e-5 -16.28707,-11.9815 -29.23836,-21.51018 -38.50391,-28.47285 -5.38594,-4.0473 -9.53294,-7.22824 -12.37347,-9.50511 -1.5051,-1.20643 -2.64808,-2.16267 -3.4121,-2.85727 -0.39171,-0.35608 -0.68789,-0.64706 -0.88034,-0.866 -0.0977,-0.11103 -0.17154,-0.20674 -0.21669,-0.2817 -0.0233,-0.0385 -0.0405,-0.0738 -0.0493,-0.10222 -0.0125,-0.0376 -0.007,-0.0742 0.008,-0.078 0.0151,-0.004 0.0315,-0.002 0.0658,0.0211 0.0224,0.0122 0.0505,0.0281 0.0867,0.0506 0.0698,0.043 0.16361,0.10232 0.28586,0.18226 0.23907,0.15581 0.57535,0.37843 1.01401,0.67269 0.85248,0.57144 2.07618,1.39965 3.66973,2.48545 3.0037,2.04638 7.30521,4.9947 12.85215,8.81907 9.53891,6.57656 22.75346,15.72612 39.30925,27.34976 10e-6,10e-6 2e-5,2e-5 3e-5,2e-5 12.08055,8.48155 25.96411,18.25075 41.37041,29.48558 5.00145,3.64708 10.17629,7.44886 15.44637,11.5058 1.78263,1.37212 3.58535,2.77997 5.38219,4.25643 1.14245,0.93542 2.33535,1.92637 3.49373,3.06526 10e-6,2e-5 3e-5,3e-5 4e-5,4e-5 11.00668,10.8579 21.51119,23.7231 30.81478,38.59418 9.3036,14.87109 17.40651,31.75325 23.50049,50.32209 5.06899,15.4603 8.84961,31.9767 11.33954,49.34525 2.48994,17.36855 3.68778,35.59012 3.75389,54.34174 0.002,1.80718 0.20513,3.75504 0.35527,5.85569 0.20222,2.74128 0.38682,5.54431 0.43968,8.41264 0.0602,2.75382 -7.6e-4,5.65968 -0.48457,8.65856 -0.19947,2.17103 -1.01031,4.89629 -3.21663,7.40425 -2e-5,3e-5 -5e-5,6e-5 -8e-5,9e-5 -0.16931,0.59075 -1.33351,1.17715 -3.49471,1.49041 -2.08284,-0.50891 -3.24913,-1.3096 -3.47452,-2.21343 -0.87371,-1.82827 -1.07366,-3.27348 -1.02084,-4.11555 -0.0959,-1.27271 -0.10406,-2.49341 -0.0801,-3.65443 0.0137,-0.79471 0.0604,-1.44326 0.0558,-1.9448 0.0212,-3.47714 -0.92758,-7.14379 -2.04111,-10.9732 0,-3e-5 -10e-6,-5e-5 -2e-5,-7e-5 -1.35897,-4.55114 -3.11196,-9.08218 -4.99528,-13.66633 -1.8847,-4.58035 -3.92088,-9.17832 -5.95648,-13.86042 -1.67654,-3.84848 -3.41037,-7.8055 -4.89342,-11.98854 -5.55068,-15.68121 -11.72279,-31.54225 -18.80091,-47.34537 -7.07811,-15.80312 -15.06216,-31.5484 -24.29002,-46.95025 -10e-6,-3e-5 -3e-5,-5e-5 -4e-5,-8e-5 -17.10436,-28.5759 -38.64036,-55.84366 -63.85,-80.94693 -2e-5,-2e-5 -4e-5,-4e-5 -6e-5,-6e-5 -2.35724,-2.34786 -4.85529,-4.61056 -7.4371,-6.83712 -2e-5,-2e-5 -4e-5,-4e-5 -6e-5,-6e-5 -3.99376,-3.43687 -8.114,-6.68828 -12.45572,-9.55126 -4.23899,-2.74086 -8.41526,-5.22972 -12.73886,-6.27482 -1.67759,-0.3826 -3.20657,-0.62762 -4.43312,-0.38123 -2e-5,10e-6 -4e-5,10e-6 -6e-5,10e-6 -0.97777,0.16212 -1.94116,0.6053 -2.52338,1.24192 0.69576,-0.81014 0.99302,-1.61826 0.92034,-2.5599 -0.18974,-0.65531 -0.17117,-0.84938 -0.11274,-0.57478 0.44964,0.80008 1.48168,1.66954 2.71456,2.87433 4.04122,3.75303 8.52253,7.3545 12.91683,11.40181 5.61591,5.16234 11.03197,10.80594 15.70468,17.22878 4.96538,6.79791 8.98326,14.60725 10.949,23.22138 4.41003,19.69526 9.89938,39.5302 14.87505,59.88611 5.54382,22.65841 10.66503,45.88761 13.77032,69.83522 2.89778,22.15563 4.18372,45.22374 0.43537,68.22954 -1.66401,10.18545 -4.4464,20.36183 -8.84536,30.01257 -2e-5,3e-5 -3e-5,7e-5 -5e-5,10e-5 -4.20347,9.21046 -9.96585,17.82555 -17.24995,25.1374 -0.34101,0.94878 -1.99269,1.40722 -4.9351,1.32099 -2.27627,-1.18663 -3.32017,-2.05888 -3.14891,-2.55888 -0.61962,-1.41938 -0.83603,-2.28147 -0.77706,-2.52505 -0.28253,-1.847 -0.35519,-3.50063 -0.41433,-4.93152 -0.26842,-5.5231 -0.36529,-10.98417 -0.56415,-16.37056 -0.27331,-7.37916 -0.6532,-14.74616 -1.29047,-22.08147 -0.67626,-7.75039 -1.59841,-15.44135 -3.11407,-22.97175 -2.93858,-14.67296 -4.78539,-29.46237 -6.95424,-44.10559 -2.1673,-14.55229 -4.69177,-29.02314 -8.8929,-42.9628 -0.0476,-0.17025 -0.15061,-0.43963 -0.2846,-0.81581 -0.21268,-0.58416 -0.43945,-1.18146 -0.67386,-1.79423 -0.73806,-1.92852 -1.50313,-3.86425 -2.27742,-5.81401 -10e-6,-4e-5 -2e-5,-7e-5 -4e-5,-10e-5 -2.47648,-6.23552 -5.01062,-12.47456 -7.56403,-18.73202 -7.26884,-17.81288 -14.69101,-35.68907 -22.24662,-53.62624 -7.25706,-17.22759 -14.58861,-34.50224 -22.2816,-51.6851 -0.08,-0.17862 -0.15998,-0.35721 -0.24001,-0.53578 -2.57167,-5.73503 -5.12453,-11.40108 -7.86909,-16.89318 -0.80459,-1.60145 -1.55427,-3.09954 -2.3591,-4.42843 -0.25296,-0.39708 -0.38801,-0.64191 -0.45094,-0.6974 -0.0486,-0.024 0.0924,0.10349 0.40953,0.39939 -0.16329,0.28303 0.82489,0.60877 2.9621,1.03527 -0.0664,0.39893 0.62645,-0.11451 2.37823,-1.28812 0.92384,-1.85603 1.29648,-2.77128 0.91351,-2.96584 -0.13913,0.17599 0.5675,0.93391 1.38457,2.47178 2e-5,3e-5 3e-5,6e-5 5e-5,9e-5 1.02069,1.62686 2.20657,3.35293 3.37624,5.29108 2e-5,3e-5 4e-5,6e-5 6e-5,9e-5 0.99691,1.49021 2.13616,3.58853 2.81541,6.42645 2e-5,6e-5 3e-5,1.2e-4 4e-5,1.8e-4 1.5344,7.89662 1.42599,15.6767 1.07439,23.04419 0,3e-5 0,7e-5 -10e-6,1.1e-4 -0.32097,7.48522 -0.99176,14.70825 -0.98544,21.70126 -0.0182,36.84587 -3.53519,73.02858 -7.02899,108.53687 -3.53012,36.00419 -6.99352,71.44409 -7.01458,106.31214 -0.0252,0.63568 0.1449,1.53266 0.31559,2.69138 0.26014,1.58742 0.59158,3.21181 0.94171,4.88107 0.87513,4.16171 1.85049,8.3572 2.7651,12.62011 10e-6,4e-5 10e-6,7e-5 2e-5,10e-5 0.86028,3.98435 1.72573,8.10649 2.25834,12.40608 0,4e-5 1e-5,7e-5 1e-5,1.1e-4 0.19691,1.48347 0.35061,3.17729 0.28437,5.06847 -0.009,0.64252 -0.1067,1.4744 -0.35031,2.47543 -0.051,0.68199 -0.59253,1.73411 -1.69989,3.0618 -1.45743,1.41041 -3.28313,2.20143 -5.28671,2.29796 -2.08806,-0.0291 -3.72962,-0.48437 -4.87392,-1.12288 -3.46277,-1.74606 -6.01089,-4.08085 -8.00644,-6.22577 -3.05448,-3.12691 -5.74023,-6.44667 -8.23393,-9.76552 -2e-5,-3e-5 -4e-5,-6e-5 -6e-5,-8e-5 -3.00503,-3.9886 -5.80381,-8.07799 -8.46547,-12.20482 -2e-5,-2e-5 -4e-5,-5e-5 -5e-5,-8e-5 -5.53087,-8.56894 -10.59527,-17.40406 -15.07687,-26.49078 -2e-5,-4e-5 -3e-5,-7e-5 -5e-5,-10e-5 -1.85846,-3.76294 -3.6386,-7.62532 -5.19281,-11.63305 -2e-5,-3e-5 -3e-5,-6e-5 -4e-5,-9e-5 -1.07801,-2.69328 -2.16611,-5.74278 -2.6983,-9.21979 -2.14845,-15.23991 -2.453,-30.46706 -1.88784,-45.40174 0.59554,-15.87925 2.14774,-31.48901 3.89924,-46.8441 1.779,-15.66747 3.83723,-31.10108 5.43278,-46.33176 1.59555,-15.23069 2.72831,-30.25845 2.7474,-45.11096 0.0324,-14.13235 1.21983,-27.98376 2.55279,-41.55127 0.48672,-4.97162 1.02229,-9.87265 1.45316,-14.71912 0.12401,-1.42429 0.24883,-2.751 0.27962,-3.98439 -0.002,-0.37692 0.0168,-0.55706 0.005,-0.53552 -0.0482,-0.0544 0.0324,0.21532 0.21907,0.81805 0.12606,0.0806 1.15158,0.26584 3.06849,0.61759 0.27691,0.0508 0.57445,0.11014 0.89251,0.17154 0.58916,0.11374 1.24639,0.2372 1.96922,0.36867 1e-5,0 3e-5,10e-6 4e-5,10e-6 0.79021,-0.89976 1.52054,-1.58348 2.18381,-2.05355 0.002,-0.0585 0.003,0.004 -0.012,0.18634 -0.0359,0.5812 -0.0453,1.22377 -0.0578,1.92567 -0.0402,2.47662 -0.0296,4.97772 -0.0196,7.5019 0,3e-5 0,6e-5 0,9e-5 0.032,7.87677 0.12576,15.71562 0.20016,23.515 0.08,8.37856 0.15945,16.71023 0.15303,24.99257 0,3e-5 0,6e-5 0,9e-5 -0.002,3.13446 -0.014,6.27995 -0.079,9.43476 0,3e-5 0,6e-5 0,9e-5 -0.0225,1.10195 -0.0521,2.22365 -0.105,3.36399 -0.0284,0.69198 -0.0704,1.49336 -0.18023,2.39668 -2.50938,19.63162 -7.64121,38.44509 -14.38207,56.13868 -6.98224,18.32686 -15.60254,35.47045 -24.8129,51.6765 -9.98852,17.57501 -20.6466,34.07321 -31.13501,49.99551 -10.48842,15.9223 -20.80805,31.26818 -30.34889,46.39808 -0.32401,0.4842 -0.62893,1.21485 -1.0566,2.10399 -0.65177,1.39298 -1.28412,2.8143 -1.9242,4.25063 -1.71129,3.84149 -3.40887,7.68593 -5.18311,11.48901 -1.71964,3.69463 -3.50738,7.43277 -5.63405,11.0437 -0.72487,1.25071 -1.57422,2.60158 -2.68529,3.92531 -0.35362,0.442 -0.86331,0.95855 -1.56405,1.49074 -0.38332,0.43266 -1.30587,0.79945 -2.75093,0.95945 -0.8215,0.0863 -1.86537,-0.24062 -3.02487,-1.04298 -0.92878,-0.90026 -1.42916,-1.78728 -1.53551,-2.56834 -0.29502,-1.79647 -0.11567,-3.15352 0.14672,-4.00569 10e-6,-3e-5 10e-6,-5e-5 2e-5,-8e-5 0.25873,-1.25143 0.57043,-2.36653 0.81653,-3.37505 1e-5,-2e-5 1e-5,-5e-5 2e-5,-7e-5 0.21132,-0.98021 0.421,-1.71259 0.39197,-2.20744 0,-10e-6 0,-2e-5 0,-3e-5 0.0543,-12.24431 0.10965,-24.18365 0.16591,-35.8082 0.066,-11.38611 2.12534,-22.28878 4.97405,-32.51392 3.21211,-11.55633 7.41089,-22.35064 11.7988,-32.5632 10e-6,-2e-5 2e-5,-4e-5 2e-5,-5e-5 4.82868,-11.245 9.95866,-21.78608 14.7765,-31.8959 4.81784,-10.10982 9.32627,-19.78722 13.16668,-29.1909 5.20064,-12.73118 9.05171,-25.03994 11.80719,-36.62263 2.75549,-11.5827 4.41838,-22.44152 5.30947,-32.38693 1.0357,-11.52107 1.07637,-21.79131 0.75382,-30.66703 -0.32256,-8.87573 -1.01318,-16.3606 -1.67962,-22.38673 -0.66645,-6.02613 -1.31223,-10.5965 -1.72148,-13.66892 -0.40925,-3.07242 -0.58346,-4.64879 -0.44479,-4.67566 z"
       id="path3913"
       inkscape:path-effect="#path-effect3915"
       inkscape:original-d="m 326.25217,594.81341 c 9.60094,49.54009 6.91639,94.11219 -11.93606,141.24331 -15.13011,37.82529 -43.76553,83.85775 -43.76553,125.32856 0,11.9361 0,23.8721 0,35.8082 0,3.3156 -3.31557,9.9467 0,9.9467 3.99794,0 15.65943,-30.2274 17.90408,-33.8188 39.81608,-63.70575 89.8382,-125.88158 99.46713,-202.91296 0.94063,-7.5251 -0.71848,-73.60567 0,-73.60567 1.22813,0 -3.97869,34.20013 -3.97869,61.66962 0,58.5619 -18.14263,125.64808 -9.94671,183.01951 2.34785,16.43496 40.56196,80.7879 49.73356,71.6163 3.11088,-3.1109 -5.96803,-33.1529 -5.96803,-39.7868 0,-71.43367 13.9254,-141.73118 13.9254,-214.84901 0,-13.22562 2.62757,-30.62771 0,-43.76554 -1.11113,-5.55563 -11.63368,-15.91474 -5.96803,-15.91474 3.80936,0 65.46695,149.92239 67.63765,157.15806 8.72909,29.09697 10.04317,58.17321 15.91474,87.53107 6.00157,30.00786 3.91303,69.69266 5.96803,67.63766 55.15612,-55.15614 11.24337,-180.16858 -3.97869,-248.66783 -7.11102,-31.99958 -46.28653,-51.19126 -41.77619,-55.70159 11.18682,-11.18682 40.84136,16.96925 45.75488,21.88277 52.8664,52.8664 82.75553,106.56874 107.42449,177.05148 4.65018,13.28623 17.90408,38.03025 17.90408,51.72291 0,0.957 -0.67736,10.62406 1.98935,7.95736 4.62247,-4.6225 1.98934,-22.18322 1.98934,-27.85079 0,-71.03598 -16.06811,-139.40735 -67.63765,-190.97688 -11.90165,-11.90165 -120.96659,-87.9872 -121.34989,-89.52041"
       inkscape:connector-curvature="0" />
    <path
       style="fill:#000000;fill-rule:evenodd;stroke:none"
       d="m 155.16872,399.85784 c -0.13488,0.0523 -0.33736,-0.0879 -0.62271,-0.37829 -0.28536,-0.29044 -0.65605,-0.72971 -1.16718,-1.26483 -0.51113,-0.53512 -1.16669,-1.16457 -2.01263,-1.84682 -0.84594,-0.68224 -1.88722,-1.41576 -3.0931,-2.19344 -2.40159,-1.49498 -5.52618,-3.04046 -9.346,-3.92493 -1.36479,-0.29129 -2.80088,-0.52269 -4.22617,-0.56966 -1.42529,-0.047 -2.84012,0.0899 -4.12231,0.5926 -0.98576,0.36495 -1.91265,0.91361 -2.56554,1.64241 -0.71463,0.73237 -1.2386,1.8008 -1.59793,3.00024 -1.51546,5.17421 -2.21001,11.12238 -1.73264,17.43144 0.41739,5.52204 1.7457,11.3278 4.00572,17.10516 0,10e-6 0,10e-6 0,10e-6 1.96368,4.98383 4.58991,9.95401 7.92547,14.61367 3.33555,4.65966 7.38038,9.00832 12.14001,12.6678 3.94407,3.02115 8.32372,5.56698 13.0363,7.02269 4.19773,1.29384 8.69598,1.79195 12.91748,1.00678 4.35915,-0.73893 8.63817,-2.92915 12.29065,-5.98813 0.67245,-0.55911 1.32447,-1.15003 1.9571,-1.77001 3.88045,-3.8028 6.93717,-8.59369 9.51264,-13.61434 1.9327,-3.67238 2.67204,-8.18657 3.20015,-12.86278 0.60324,-5.92258 0.44838,-11.87104 -0.0832,-17.69268 -0.5961,-6.41794 -1.68567,-12.59472 -3.23248,-18.42055 -1.50542,-5.60388 -3.33112,-10.80264 -5.81327,-15.30633 -1.08447,-1.96329 -2.23539,-3.75315 -3.54133,-5.2611 -1.15337,-1.30763 -2.31929,-2.41251 -3.55436,-3.1002 -1.08621,-0.61268 -2.2439,-1.00273 -3.30191,-1.01481 -1.21043,-0.0833 -2.57136,0.34118 -3.88163,0.96738 -1.88081,0.91313 -3.57875,2.40796 -5.1864,4.0313 -2.4169,2.47543 -4.39713,5.258 -6.17609,7.98866 -2.76599,4.25414 -4.94633,8.30749 -6.77267,11.919 -1.82633,3.61151 -3.2954,6.78329 -4.51242,9.36718 -1.21703,2.58389 -2.17883,4.5823 -2.91366,5.90531 -0.73484,1.32301 -1.24082,1.97259 -1.50859,1.88333 -0.26777,-0.0893 -0.28737,-0.91349 -0.0617,-2.41695 0.22564,-1.50345 0.69416,-3.6874 1.44945,-6.48404 0.75529,-2.79664 1.79406,-6.20823 3.25086,-10.12771 1.45681,-3.91949 3.32857,-8.34931 5.88925,-13.10745 1.65047,-3.07164 3.64413,-6.32431 6.31566,-9.48085 1.74846,-2.09127 3.9151,-4.1776 6.72407,-5.84434 2.05048,-1.22256 4.5298,-2.0724 7.32457,-2.18697 2.49013,-0.0398 4.92417,0.55334 7.077,1.67955 2.2875,1.2034 4.25022,2.80284 5.87423,4.57026 1.86454,2.00236 3.45148,4.21796 4.81393,6.51292 3.10474,5.2189 5.41686,11.03857 7.18514,17.06195 1.8656,6.29409 3.21717,12.9683 3.99634,19.89089 0.71428,6.2634 0.97728,12.83366 0.39189,19.58119 -0.40104,5.22787 -1.41142,10.89734 -4.06269,16.3929 -2.80527,5.74083 -6.48493,11.42053 -11.40833,16.27892 -0.80267,0.79207 -1.6351,1.55875 -2.4981,2.29716 -4.84486,4.12166 -10.7309,7.02128 -17.04445,8.1362 -6.09276,1.00641 -12.15224,0.33096 -17.61382,-1.48569 -6.03837,-2.00632 -11.36695,-5.1753 -15.92852,-8.86725 -5.47229,-4.41611 -10.02417,-9.54029 -13.68968,-14.9649 -3.66552,-5.42462 -6.44501,-11.14903 -8.42412,-16.84868 0,0 0,0 0,-1e-5 -2.32064,-6.63448 -3.5193,-13.31915 -3.68332,-19.66127 -0.18816,-7.27159 1.04992,-14.04579 3.19567,-19.85521 0.7157,-2.02566 1.91871,-3.88967 3.52662,-5.37414 1.57393,-1.39668 3.36839,-2.27905 5.16312,-2.73356 2.19009,-0.52061 4.26186,-0.56183 6.16264,-0.34702 1.90079,0.2148 3.63101,0.68618 5.16905,1.25438 4.35369,1.53559 7.63524,3.77662 9.98222,5.87646 1.18632,1.03329 2.17537,2.09305 2.92602,3.08197 0.75066,0.98892 1.26802,1.90606 1.60138,2.67641 0.33335,0.77034 0.48691,1.39334 0.53018,1.82738 0.0433,0.43404 -0.021,0.67909 -0.15584,0.73144 z"
       id="path5217"
       inkscape:path-effect="#path-effect5219"
       inkscape:original-d="m 155.16872,399.85784 c -3.7593,-9.68505 -27.13164,-20.06157 -31.82948,-5.96802 -16.21052,48.63153 49.60597,111.65836 79.5737,51.7229 15.27979,-30.55958 -15.95812,-141.11318 -51.72291,-33.81882"
       inkscape:connector-curvature="0" />
  </g>
</svg>
